# xmcd CD database file
#
# Track frame offsets:
#	150
#	19911
#	39386
#	69004
#	101912
#	128590
#	152158
#	170931
#	197414
#	234577
#
# Disc length: 3568 seconds
#
# Revision: 1
# Processed by: cddbd v1.5.2PL0 Copyright (c) Steve Scherf et al.
# Submitted via: CDex 1.51
#
DISCID=7e0dee0a
DTITLE=Various Artist - My First Jazz-Dear Passion Jazz
DYEAR=1997
DGENRE=Jazz
TTITLE0=Every Breath You Take -- Leni Stern
TTITLE1=Look What They've Done To My Song -- John Tropea
TTITLE2=Walk On By -- Lenny White
TTITLE3=Yuki No Sabaku -- Tashiki Nunokawa VALIS
TTITLE4=Angel -- Ralph McDonald
TTITLE5=Memories Of Rio -- Luis Conte
TTITLE6=Triste --Camila Benson
TTITLE7=BesameMucho/Quizas Quizas quizas -- Camila Benson
TTITLE8=Stolen Moments -- Essence All Stars, Feat.-Kenny Burrell
TTITLE9=That The Way Of The World -- Richard Tee
EXTD=YEAR: 1997
EXTT0=
EXTT1=
EXTT2=
EXTT3=
EXTT4=
EXTT5=
EXTT6=
EXTT7=
EXTT8=
EXTT9=
PLAYORDER=
